<svg width="752" height="220" viewBox="0 0 752 220" fill="none" xmlns="http://www.w3.org/2000/svg">
<path d="M84.072 219.456C57 219.456 36.36 213.312 22.152 201.024C7.944 188.544 0.840001 170.208 0.840001 146.016V84.384C0.840001 60.192 7.944 41.952 22.152 29.664C36.36 17.184 57 10.944 84.072 10.944C102.888 10.944 118.248 14.112 130.152 20.448C142.248 26.592 151.848 35.904 158.952 48.384L129.864 68.544C123.912 59.328 117.672 52.704 111.144 48.672C104.808 44.64 95.784 42.624 84.072 42.624C69.288 42.624 58.44 46.176 51.528 53.28C44.808 60.192 41.448 70.56 41.448 84.384V146.016C41.448 159.84 44.808 170.304 51.528 177.408C58.44 184.32 69.288 187.776 84.072 187.776C96.744 187.776 106.536 185.664 113.448 181.44C120.552 177.024 126.888 170.016 132.456 160.416L161.256 181.728C155.112 190.56 148.776 197.664 142.248 203.04C135.72 208.416 127.752 212.544 118.344 215.424C109.128 218.112 97.704 219.456 84.072 219.456ZM265.143 174.24C265.143 179.424 266.103 183.648 268.023 186.912C270.135 190.176 273.783 193.728 278.967 197.568L253.911 219.456C242.967 213.888 235.479 206.88 231.447 198.432C227.223 204.384 221.463 209.376 214.167 213.408C206.871 217.44 197.847 219.456 187.095 219.456C173.463 219.456 162.615 216 154.551 209.088C146.487 201.984 142.455 192 142.455 179.136C142.455 167.616 145.431 158.784 151.383 152.64C157.527 146.304 164.535 141.984 172.407 139.68C180.279 137.376 189.015 135.744 198.615 134.784L212.439 133.344C218.007 132.768 221.847 131.808 223.959 130.464C226.263 129.12 227.511 126.912 227.703 123.84C227.319 118.08 225.399 113.184 221.943 109.152C218.679 105.12 212.343 103.104 202.935 103.104C196.791 103.104 191.415 104.256 186.807 106.56C182.199 108.864 177.495 112.608 172.695 117.792L147.063 99.936C152.631 92.64 159.639 87.072 168.087 83.232C176.535 79.2 188.151 77.184 202.935 77.184C244.407 77.184 265.143 93.984 265.143 127.584V174.24ZM196.599 192.672C206.583 192.672 214.263 190.272 219.639 185.472C225.015 180.48 227.703 174.432 227.703 167.328V155.232C224.631 156.384 218.775 157.44 210.135 158.4L201.495 159.264C194.967 159.84 189.495 161.376 185.079 163.872C180.663 166.176 178.455 170.592 178.455 177.12C178.455 182.112 180.087 185.952 183.351 188.64C186.615 191.328 191.031 192.672 196.599 192.672ZM343.907 219.456C325.858 219.456 311.938 213.888 302.146 202.752V216H264.706V45.216C264.706 40.032 263.65 35.808 261.538 32.544C259.618 29.28 256.066 25.728 250.882 21.888L275.938 -1.71661e-05C285.73 4.99199 292.546 10.752 296.386 17.28C300.226 23.616 302.146 32.544 302.146 44.064V94.752C312.131 83.04 326.051 77.184 343.907 77.184C356.579 77.184 367.331 80.256 376.162 86.4C385.187 92.352 391.907 100.416 396.323 110.592C400.739 120.576 402.947 131.616 402.947 143.712V152.928C402.947 165.024 400.739 176.16 396.323 186.336C391.907 196.32 385.187 204.384 376.162 210.528C367.331 216.48 356.579 219.456 343.907 219.456ZM332.962 190.656C343.522 190.656 351.586 187.008 357.155 179.712C362.722 172.416 365.506 163.488 365.506 152.928V143.712C365.506 133.152 362.722 124.224 357.155 116.928C351.586 109.632 343.522 105.984 332.962 105.984C316.834 105.984 306.562 113.856 302.146 129.6V167.04C306.562 182.784 316.834 190.656 332.962 190.656ZM452.417 191.232C459.521 191.232 465.281 190.368 469.697 188.64C474.113 186.72 478.913 183.456 484.097 178.848L506.273 199.008C495.137 212.64 477.185 219.456 452.417 219.456C430.337 219.456 414.401 215.328 404.609 207.072C394.817 198.624 389.921 184.992 389.921 166.176V124.992C389.921 110.208 395.201 98.592 405.761 90.144C416.513 81.504 431.105 77.184 449.537 77.184C468.545 77.184 483.425 81.792 494.177 91.008C504.929 100.032 510.305 113.28 510.305 130.752C510.305 139.2 509.537 145.728 508.001 150.336C506.657 154.944 503.873 158.4 499.649 160.704C495.425 162.816 489.281 163.872 481.217 163.872H427.073V166.464C427.073 182.976 435.521 191.232 452.417 191.232ZM449.537 105.408C442.433 105.408 436.865 107.52 432.833 111.744C428.993 115.776 427.073 121.152 427.073 127.872V138.24H459.905C464.897 138.24 468.353 137.472 470.273 135.936C472.193 134.4 473.153 131.712 473.153 127.872C473.153 120.576 471.137 115.008 467.105 111.168C463.073 107.328 457.217 105.408 449.537 105.408ZM527.378 219.456C517.586 214.464 510.77 208.8 506.93 202.464C503.09 195.936 501.17 186.912 501.17 175.392V45.216C501.17 40.032 500.114 35.808 498.002 32.544C496.082 29.28 492.53 25.728 487.346 21.888L512.402 -1.71661e-05C522.194 4.99199 529.01 10.752 532.85 17.28C536.69 23.616 538.61 32.544 538.61 44.064V174.24C538.61 179.424 539.57 183.648 541.49 186.912C543.602 190.176 547.25 193.728 552.434 197.568L527.378 219.456ZM597.756 191.232C604.86 191.232 610.62 190.368 615.036 188.64C619.452 186.72 624.252 183.456 629.436 178.848L651.612 199.008C640.476 212.64 622.524 219.456 597.756 219.456C575.676 219.456 559.74 215.328 549.948 207.072C540.156 198.624 535.26 184.992 535.26 166.176V124.992C535.26 110.208 540.54 98.592 551.1 90.144C561.852 81.504 576.444 77.184 594.876 77.184C613.884 77.184 628.764 81.792 639.516 91.008C650.268 100.032 655.644 113.28 655.644 130.752C655.644 139.2 654.876 145.728 653.34 150.336C651.996 154.944 649.212 158.4 644.988 160.704C640.764 162.816 634.62 163.872 626.556 163.872H572.412V166.464C572.412 182.976 580.86 191.232 597.756 191.232ZM594.876 105.408C587.772 105.408 582.204 107.52 578.172 111.744C574.332 115.776 572.412 121.152 572.412 127.872V138.24H605.244C610.236 138.24 613.692 137.472 615.612 135.936C617.532 134.4 618.492 131.712 618.492 127.872C618.492 120.576 616.476 115.008 612.444 111.168C608.412 107.328 602.556 105.408 594.876 105.408ZM714.002 216L686.354 173.952L660.434 216H622.706L667.058 144.864L624.722 80.64H662.162L688.658 120.672L713.426 80.64H750.866L707.954 150.048L751.73 216H714.002Z" fill="#6f4bc2"/>
</svg>
